# xmcd CD database file
#
# Track frame offsets:
#	150
#	25415
#	47366
#	71780
#	95735
#	113725
#	129450
#	161585
#	184729
#	208532
#
# Disc length: 3119 seconds
#
# Revision: 0
# Processed by: cddbd v1.5.2PL0 Copyright (c) Steve Scherf et al.
# Submitted via: CDex 1.51
#
DISCID=880c2d0a
DTITLE=Sandro Gibellini - Trufò
DYEAR=2006
DGENRE=Jazz
TTITLE0=Lago Lucone
TTITLE1=111 Palavras
TTITLE2=Trufò
TTITLE3=Essere una martora
TTITLE4=Un giorno o l'altro
TTITLE5=Quando dormi
TTITLE6=Soul sister
TTITLE7=Buon camino
TTITLE8=Bicromatico
TTITLE9=Pantajazz
EXTD=YEAR: 2006
EXTT0=
EXTT1=
EXTT2=
EXTT3=
EXTT4=
EXTT5=
EXTT6=
EXTT7=
EXTT8=
EXTT9=
PLAYORDER=
